<svg xmlns="http://www.w3.org/2000/svg" width="20" height="24.001" viewBox="0 0 20 24.001">
  <g id="Component_10_1" data-name="Component 10 – 1" transform="translate(2 2)">
    <g id="Subtraction_9" data-name="Subtraction 9" transform="translate(-2156 -670) rotate(180)" fill="none" stroke-linecap="round" stroke-linejoin="round">
      <path d="M-2172-670v-20l8,8.421,8-8.421v20h-16Z" stroke="none"/>
      <path d="M -2156 -669.9996337890625 L -2156 -690.000244140625 L -2163.99951171875 -681.5791015625 L -2171.99951171875 -690.000244140625 L -2171.99951171875 -669.9996337890625 L -2156.0009765625 -670.000244140625 L -2156 -669.9996337890625 M -2156 -667.9996337890625 L -2156.0009765625 -667.9996337890625 C -2156.017578125 -667.9996337890625 -2156.0341796875 -667.9998168945312 -2156.05078125 -668.000244140625 L -2171.99951171875 -667.9996337890625 C -2172.52978515625 -667.9996337890625 -2173.03857421875 -668.2103271484375 -2173.413818359375 -668.5853881835938 C -2173.788818359375 -668.96044921875 -2173.99951171875 -669.4691772460938 -2173.99951171875 -669.9996337890625 L -2173.99951171875 -690.000244140625 C -2173.99951171875 -690.8184814453125 -2173.5009765625 -691.5542602539062 -2172.7412109375 -691.857666015625 C -2171.980224609375 -692.1611328125 -2171.113037109375 -691.9708251953125 -2170.549560546875 -691.3777465820312 L -2163.99951171875 -684.4829711914062 L -2157.449951171875 -691.377685546875 C -2156.88671875 -691.9708862304688 -2156.018798828125 -692.1611938476562 -2155.25830078125 -691.857666015625 C -2154.49853515625 -691.5542602539062 -2154 -690.8185424804688 -2154 -690.000244140625 L -2154 -669.9996337890625 C -2154 -668.8950805664062 -2154.8955078125 -667.9996337890625 -2156 -667.9996337890625 Z" stroke="none" fill="#b5b5b5"/>
    </g>
  </g>
</svg> 