<svg xmlns="http://www.w3.org/2000/svg" width="101" height="96" viewBox="0 0 101 96">
  <g id="Group_51" data-name="Group 51" transform="translate(-337 -254)">
    <path id="Polygon_27" data-name="Polygon 27" d="M46.769,9.664a4,4,0,0,1,7.463,0l8.719,22.581A4,4,0,0,0,66.466,34.8l24.179,1.309a4,4,0,0,1,2.306,7.1L74.163,58.467A4,4,0,0,0,72.819,62.6l6.225,23.384a4,4,0,0,1-6.037,4.388L52.672,77.226a4,4,0,0,0-4.343,0L27.993,90.373a4,4,0,0,1-6.037-4.388L28.181,62.6a4,4,0,0,0-1.344-4.134L8.05,43.207a4,4,0,0,1,2.306-7.1L34.534,34.8a4,4,0,0,0,3.515-2.553Z" transform="translate(337 254)" fill="#fff"/>
    <path id="Subtraction_29" data-name="Subtraction 29" d="M-1652.172-4425.972a4.073,4.073,0,0,1-3.2-1.6,3.89,3.89,0,0,1-.67-3.445l6.225-23.384a4.006,4.006,0,0,0-1.343-4.134l-18.787-15.26a3.888,3.888,0,0,1-1.482-3.207h87.865a3.888,3.888,0,0,1-1.483,3.207l-18.787,15.26a4.01,4.01,0,0,0-1.343,4.134l6.226,23.384a3.891,3.891,0,0,1-.67,3.444,4.075,4.075,0,0,1-3.2,1.6,3.991,3.991,0,0,1-2.165-.655l-20.336-13.147a3.99,3.99,0,0,0-2.171-.641,3.99,3.99,0,0,0-2.172.641l-20.336,13.147A3.991,3.991,0,0,1-1652.172-4425.972Z" transform="translate(2015 4771)" fill="#ff9a03"/>
  </g>
</svg>
