<svg xmlns="http://www.w3.org/2000/svg" width="45.558" height="44" viewBox="0 0 45.558 44">
  <path id="Wheel" d="M529.7-329v-7.284q-.655-.212-1.294-.482-.541-.229-1.061-.5l-5.7,5.709-7.192-7.2,5.8-5.812q-.154-.323-.294-.655a15.8,15.8,0,0,1-.87-2.722H512v-10.185h8.2q.126-.271.262-.536l-6.01-6.018,7.192-7.2,6.119,6.128q.317-.151.642-.289.639-.271,1.294-.483V-373h10.17v6.608q.447.159.887.345.466.2.916.423l6.252-6.262,7.191,7.2-6.281,6.29q.064.132.126.264h8.6v10.185h-7.492a15.73,15.73,0,0,1-.87,2.722q-.08.19-.165.377l6.08,6.09-7.191,7.2-5.84-5.849q-.647.348-1.328.636-.439.186-.887.344V-329Zm-3.662-22.407a8.559,8.559,0,0,0,8.543,8.556,8.559,8.559,0,0,0,8.543-8.556,8.559,8.559,0,0,0-8.543-8.556A8.559,8.559,0,0,0,526.035-351.407Z" transform="translate(-512 373)" fill="#a5a5a5"/>
</svg>
